<svg width="32" height="32" viewBox="0 0 32 32" fill="none" xmlns="http://www.w3.org/2000/svg">
  <rect width="32" height="32" rx="8" fill="url(#gradient)"/>
  <path d="M8 12C8 10.3431 9.34315 9 11 9H21C22.6569 9 24 10.3431 24 12V20C24 21.6569 22.6569 23 21 23H11C9.34315 23 8 21.6569 8 20V12Z" fill="white" fill-opacity="0.2"/>
  <path d="M10 14C10 13.4477 10.4477 13 11 13H21C21.5523 13 22 13.4477 22 14V18C22 18.5523 21.5523 19 21 19H11C10.4477 19 10 18.5523 10 18V14Z" fill="white" fill-opacity="0.9"/>
  <defs>
    <linearGradient id="gradient" x1="0" y1="0" x2="32" y2="32" gradientUnits="userSpaceOnUse">
      <stop stop-color="#8B5CF6"/>
      <stop offset="1" stop-color="#A855F7"/>
    </linearGradient>
  </defs>
</svg>